<?xml version="1.0" encoding="UTF-8" standalone="no"?>
<svg
   xmlns:dc="http://purl.org/dc/elements/1.1/"
   xmlns:cc="http://creativecommons.org/ns#"
   xmlns:rdf="http://www.w3.org/1999/02/22-rdf-syntax-ns#"
   xmlns:svg="http://www.w3.org/2000/svg"
   xmlns="http://www.w3.org/2000/svg"
   version="1.1"
   id="svg2"
   height="400"
   width="1800">
  <defs
     id="defs4">
    <clipPath
       clipPathUnits="userSpaceOnUse"
       id="clipPath2874">
      <path
         d="M 0,515.91 H 728.5 V 0 H 0 Z"
         id="path2876" />
    </clipPath>
  </defs>
  <metadata
     id="metadata7">
    <rdf:RDF>
      <cc:Work
         rdf:about="">
        <dc:format>image/svg+xml</dc:format>
        <dc:type
           rdf:resource="http://purl.org/dc/dcmitype/StillImage" />
        <dc:title></dc:title>
      </cc:Work>
    </rdf:RDF>
  </metadata>
  <g
     transform="translate(0,-652.36218)"
     id="layer1">
    <g
       transform="matrix(1.261921,0,0,-1.261921,347.21967,962.79396)"
       id="g2878">
      <path
         id="path2880"
         style="fill:#2e2a2b;fill-opacity:1;fill-rule:nonzero;stroke:none"
         d="m 0,0 c 46.681,55.549 43.923,138.532 -8.342,190.797 -55.216,55.216 -144.735,55.216 -199.948,0 -55.215,-55.215 -55.215,-144.733 0,-199.948 52.264,-52.264 135.246,-55.026 190.795,-8.344 l -68.383,68.386 c -6.636,-3.738 -14.289,-5.879 -22.447,-5.879 -25.307,0 -45.821,20.514 -45.821,45.82 0,25.305 20.514,45.82 45.821,45.82 25.305,0 45.82,-20.515 45.82,-45.82 0,-8.158 -2.142,-15.811 -5.88,-22.448 z" />
    </g>
    <g
       transform="matrix(1.261921,0,0,-1.261921,66.182291,686.79808)"
       id="g2882">
      <path
         id="path2884"
         style="fill:#2e2a2b;fill-opacity:1;fill-rule:nonzero;stroke:none"
         d="m 0,0 c 0,-7.455 -6.043,-13.499 -13.498,-13.499 -7.455,0 -13.498,6.044 -13.498,13.499 0,7.455 6.043,13.498 13.498,13.498 C -6.043,13.498 0,7.455 0,0" />
    </g>
    <g
       transform="translate(7.115463,-5.354985)"
       id="g4717">
      <g
         id="g2886"
         transform="matrix(1.261921,0,0,-1.261921,462.39899,748.55564)">
        <path
           d="m 0,0 c -0.307,3.369 -1.432,5.87 -3.369,7.505 -1.838,1.735 -4.392,2.603 -7.658,2.603 -2.757,0 -5.031,-0.536 -6.816,-1.608 -1.788,-1.072 -3.139,-2.554 -4.058,-4.441 -0.919,-1.891 -1.558,-3.959 -1.915,-6.203 -0.359,-2.248 -0.536,-4.748 -0.536,-7.505 0,-2.757 0.153,-5.26 0.459,-7.505 0.307,-2.247 0.944,-4.288 1.914,-6.126 0.971,-1.839 2.348,-3.293 4.136,-4.365 1.785,-1.072 4.059,-1.608 6.816,-1.608 3.164,0 5.843,1.122 8.041,3.369 2.194,2.245 3.445,5.002 3.752,8.271 h 28.947 c -1.432,-10.518 -5.923,-18.762 -13.479,-24.735 -7.556,-5.974 -16.846,-8.96 -27.874,-8.96 -5.923,0 -11.487,0.995 -16.694,2.986 -5.207,1.991 -9.803,4.825 -13.784,8.501 -3.982,3.675 -7.071,8.091 -9.267,13.248 -2.197,5.155 -3.293,10.798 -3.293,16.924 0,6.126 1.096,11.793 3.293,17 2.196,5.208 5.258,9.649 9.19,13.325 3.929,3.676 8.524,6.509 13.785,8.5 5.257,1.991 10.847,2.987 16.77,2.987 11.028,0 20.294,-2.733 27.798,-8.194 C 23.663,18.505 27.875,10.515 28.793,0 Z"
           style="fill:#2e2a2b;fill-opacity:1;fill-rule:nonzero;stroke:none"
           id="path2888" />
      </g>
      <g
         id="g2890"
         transform="matrix(1.261921,0,0,-1.261921,501.24496,672.7923)">
        <path
           d="m 0,0 h 30.326 v -38.443 h 0.307 c 2.857,3.369 6.203,5.973 10.031,7.811 3.828,1.839 8.754,2.757 14.779,2.757 7.659,0 14.116,-2.324 19.375,-6.969 5.258,-4.647 7.888,-11.309 7.888,-19.987 v -54.524 H 52.381 v 41.659 c 0,5.308 -0.639,9.239 -1.915,11.793 -1.278,2.551 -3.958,3.829 -8.04,3.829 -1.432,0 -2.834,-0.23 -4.213,-0.689 -1.377,-0.46 -2.68,-1.226 -3.904,-2.298 -1.226,-1.072 -2.198,-2.629 -2.911,-4.671 -0.715,-2.044 -1.072,-4.595 -1.072,-7.658 v -41.965 H 0 Z"
           style="fill:#2e2a2b;fill-opacity:1;fill-rule:nonzero;stroke:none"
           id="path2892" />
      </g>
      <path
         d="m 612.76331,710.48096 h 38.26776 V 810.7898 h -38.26776 z m 38.26776,-10.82349 h -38.26776 v -26.8663 h 38.26776 z"
         style="fill:#2e2a2b;fill-opacity:1;fill-rule:nonzero;stroke:none;stroke-width:1.26192105"
         id="path2894" />
      <g
         id="g2896"
         transform="matrix(1.261921,0,0,-1.261921,397.4594,819.79563)">
        <path
           d="m 0,0 h 29.254 v -10.567 h 0.306 c 2.96,4.388 6.61,7.58 10.95,9.571 4.34,1.992 9.367,2.987 15.087,2.987 4.491,0 8.753,-1.098 12.788,-3.293 4.033,-2.197 6.916,-5.234 8.654,-9.113 0.1,0.101 0.356,0.407 0.766,0.919 1.122,1.326 2.22,2.527 3.293,3.6 1.071,1.072 2.654,2.22 4.748,3.446 2.091,1.225 4.671,2.271 7.734,3.139 3.063,0.867 6.586,1.302 10.568,1.302 4.901,0 9.112,-0.765 12.635,-2.297 3.523,-1.531 6.356,-3.575 8.5,-6.127 2.145,-2.553 3.699,-5.437 4.672,-8.653 0.969,-3.216 1.455,-6.509 1.455,-9.879 v -54.524 h -30.326 v 43.038 c 0,4.694 -0.612,8.243 -1.838,10.644 -1.225,2.398 -3.932,3.599 -8.117,3.599 -3.575,0 -6.18,-1.251 -7.811,-3.752 -1.634,-2.503 -2.451,-6 -2.451,-10.491 V -79.489 H 50.542 v 43.038 c 0,4.694 -0.612,8.243 -1.837,10.644 -1.226,2.398 -3.933,3.599 -8.119,3.599 -3.574,0 -6.178,-1.251 -7.811,-3.752 -1.634,-2.503 -2.45,-6 -2.45,-10.491 V -79.489 H 0 Z"
           style="fill:#2e2a2b;fill-opacity:1;fill-rule:nonzero;stroke:none"
           id="path2898" />
      </g>
      <g
         id="g2900"
         transform="matrix(1.261921,0,0,-1.261921,638.27809,858.64273)">
        <path
           d="m 0,0 c 0,3.775 -1.252,6.942 -3.753,9.495 -2.504,2.552 -5.693,3.829 -9.572,3.829 -8.987,0 -14.194,-4.441 -15.622,-13.324 z m -29.101,-15.775 c 0.408,-4.699 1.939,-8.452 4.596,-11.258 2.653,-2.809 6.279,-4.211 10.873,-4.211 2.654,0 5.155,0.482 7.506,1.454 2.347,0.97 4.082,2.374 5.207,4.212 h 28.334 c -2.963,-8.271 -8.144,-14.526 -15.545,-18.762 -7.405,-4.238 -15.852,-6.355 -25.348,-6.355 -6.332,0 -12.228,0.918 -17.69,2.756 -5.464,1.838 -10.212,4.543 -14.243,8.118 -4.035,3.573 -7.149,7.938 -9.344,13.094 -2.196,5.155 -3.293,11.001 -3.293,17.538 0,5.716 0.996,11.127 2.987,16.233 1.992,5.105 4.849,9.597 8.578,13.478 3.725,3.88 8.193,6.893 13.4,9.037 5.208,2.144 10.875,3.216 17.001,3.216 15.417,0 26.804,-4.135 34.154,-12.405 C 25.424,12.099 29.1,0.05 29.1,-15.775 Z"
           style="fill:#2e2a2b;fill-opacity:1;fill-rule:nonzero;stroke:none"
           id="path2902" />
      </g>
    </g>
    <g
       transform="translate(7.115463,-4.926017)"
       id="g4725">
      <g
         id="g2904"
         transform="matrix(1.261921,0,0,-1.261921,397.65159,929.11067)">
        <path
           d="m 0,0 h 29.102 v -12.712 h 0.305 c 2.552,5.002 5.591,8.704 9.113,11.105 3.523,2.396 7.938,3.598 13.248,3.598 2.857,0 5.82,-0.409 8.883,-1.225 v -26.803 c -1.94,0.714 -3.728,1.225 -5.36,1.532 -1.635,0.306 -3.83,0.459 -6.586,0.459 -6.127,0 -10.721,-1.94 -13.784,-5.819 -3.064,-3.883 -4.595,-9.956 -4.595,-18.227 V -79.488 H 0 Z"
           style="fill:#2e2a2b;fill-opacity:1;fill-rule:nonzero;stroke:none"
           id="path2906" />
      </g>
      <g
         id="g2908"
         transform="matrix(1.261921,0,0,-1.261921,534.48875,967.95916)">
        <path
           d="m 0,0 c 0,3.777 -1.251,6.943 -3.752,9.496 -2.504,2.552 -5.693,3.829 -9.572,3.829 -8.987,0 -14.194,-4.441 -15.623,-13.325 z m -29.1,-15.775 c 0.407,-4.698 1.938,-8.45 4.595,-11.256 2.653,-2.811 6.279,-4.213 10.874,-4.213 2.654,0 5.154,0.484 7.506,1.455 2.347,0.97 4.082,2.375 5.207,4.212 h 28.334 c -2.963,-8.271 -8.145,-14.527 -15.545,-18.762 -7.405,-4.237 -15.852,-6.356 -25.349,-6.356 -6.332,0 -12.228,0.92 -17.69,2.757 -5.463,1.838 -10.211,4.542 -14.242,8.118 -4.035,3.572 -7.149,7.937 -9.344,13.094 -2.197,5.155 -3.293,11.001 -3.293,17.537 0,5.716 0.996,11.128 2.986,16.234 1.993,5.105 4.85,9.598 8.579,13.478 3.725,3.88 8.193,6.893 13.4,9.038 5.208,2.143 10.875,3.215 17,3.215 15.417,0 26.804,-4.135 34.155,-12.405 C 25.424,12.1 29.1,0.051 29.1,-15.775 Z"
           style="fill:#2e2a2b;fill-opacity:1;fill-rule:nonzero;stroke:none"
           id="path2910" />
      </g>
      <g
         id="g2912"
         transform="matrix(1.261921,0,0,-1.261921,630.73736,958.29512)">
        <path
           d="m 0,0 c -0.104,2.451 -1.277,4.441 -3.523,5.973 -1.838,1.533 -4.084,2.298 -6.739,2.298 -2.656,0 -4.85,-0.435 -6.586,-1.302 -1.737,-0.868 -2.603,-2.477 -2.603,-4.824 0,-1.022 0.33,-1.838 0.996,-2.452 0.662,-0.612 1.505,-1.173 2.527,-1.683 1.532,-0.614 5.054,-1.432 10.567,-2.451 7.146,-1.226 12.507,-2.452 16.082,-3.676 5.82,-1.838 10.439,-4.494 13.861,-7.964 3.42,-3.473 5.131,-8.221 5.131,-14.244 0,-5.207 -1.149,-9.675 -3.446,-13.402 -2.298,-3.728 -5.361,-6.638 -9.19,-8.73 -3.829,-2.094 -8.117,-3.599 -12.865,-4.518 -4.748,-0.919 -9.726,-1.379 -14.933,-1.379 -4.901,0 -9.675,0.513 -14.32,1.533 -4.647,1.019 -8.859,2.653 -12.636,4.9 -3.778,2.245 -6.815,5.182 -9.112,8.807 -2.299,3.624 -3.5,7.887 -3.6,12.789 h 28.948 c 0.203,-2.656 1.427,-5.004 3.675,-7.046 1.735,-1.531 4.442,-2.297 8.118,-2.297 2.45,0 4.771,0.51 6.968,1.531 2.194,1.02 3.293,2.552 3.293,4.596 0,2.348 -1.022,4.032 -3.064,5.054 -2.043,1.019 -6.585,2.143 -13.631,3.37 -11.539,1.937 -19.834,4.874 -24.889,8.806 -5.052,3.93 -7.58,9.316 -7.58,16.159 0,4.797 1.149,8.855 3.446,12.175 2.298,3.317 5.285,5.92 8.959,7.811 3.677,1.889 7.708,3.24 12.101,4.059 4.389,0.816 8.729,1.225 13.018,1.225 4.798,0 9.367,-0.383 13.708,-1.149 4.338,-0.765 8.37,-2.094 12.098,-3.982 3.727,-1.89 6.741,-4.494 9.037,-7.811 C 26.113,8.857 27.363,4.799 27.568,0 Z"
           style="fill:#2e2a2b;fill-opacity:1;fill-rule:nonzero;stroke:none"
           id="path2914" />
      </g>
    </g>
    <g
       id="text4621"
       style="font-style:normal;font-weight:normal;font-size:280.19802856px;line-height:140.09901428px;font-family:sans-serif;letter-spacing:0px;word-spacing:0px;fill:#000000;fill-opacity:1;stroke:none;stroke-width:7.00495052px;stroke-linecap:butt;stroke-linejoin:miter;stroke-opacity:1"
       aria-label="[SPACE]">
      <path
         id="path4512"
         style="font-style:normal;font-variant:normal;font-weight:200;font-stretch:normal;font-family:'DejaVu Sans';-inkscape-font-specification:'DejaVu Sans Ultra-Light';fill:#42b983;fill-opacity:1;stroke-width:7.00495052px"
         d="m 723.02451,667.43621 h 46.65406 v 14.22881 h -32.97252 v 224.1037 h 32.97252 v 11.49249 h -46.65406 z" />
      <path
         id="path4514"
         style="font-style:normal;font-variant:normal;font-weight:200;font-stretch:normal;font-family:'DejaVu Sans';-inkscape-font-specification:'DejaVu Sans Ultra-Light';fill:#42b983;fill-opacity:1;stroke-width:7.00495052px"
         d="m 949.04362,686.31675 v 12.86065 q -13.40791,-6.70396 -29.68895,-11.90295 -10.67161,-3.42038 -26.95264,-3.69401 -24.07952,-0.41045 -39.12922,10.6716 -13.68154,10.12434 -13.68154,34.75112 0,15.18652 10.39797,24.07952 11.08205,9.44027 33.38297,15.18652 l 16.28104,4.24128 q 21.89047,5.74624 33.79341,13.68154 22.30092,15.18651 22.30092,38.17151 0,33.24615 -19.56461,46.1068 -21.34321,13.81836 -43.78094,13.81836 -23.39544,0 -41.86553,-6.43032 -11.62931,-4.65173 -24.35315,-12.86065 V 851.5898 q 19.15416,11.35568 26.81583,14.50244 17.10193,6.97759 31.74118,6.97759 25.03723,0 41.5919,-11.08205 15.59696,-10.39798 15.59696,-36.52973 0,-15.32333 -9.57708,-24.07952 -13.81836,-12.72383 -35.84565,-18.05963 l -16.41785,-3.96765 q -19.70143,-4.78854 -33.51979,-13.40792 -20.93276,-13.13428 -20.93276,-35.84564 0,-28.3208 17.10193,-43.50731 15.87059,-14.09199 48.15904,-14.22881 19.01734,0 29.14169,3.28357 25.99493,8.48256 29.00487,10.67161 z" />
      <path
         id="path4516"
         style="font-style:normal;font-variant:normal;font-weight:200;font-stretch:normal;font-family:'DejaVu Sans';-inkscape-font-specification:'DejaVu Sans Ultra-Light';fill:#42b983;fill-opacity:1;stroke-width:7.00495052px"
         d="m 1026.4812,687.41127 v 93.85539 h 42.0023 q 22.8482,0 35.2984,-12.17657 12.587,-12.17658 12.587,-34.88794 0,-22.30092 -12.587,-34.61431 -12.4502,-12.17657 -35.2984,-12.17657 z m -13.6816,-11.35568 h 55.6839 q 30.5099,0 46.2436,14.77607 15.597,14.77606 15.597,43.37049 0,28.73124 -15.597,43.50731 -15.7337,14.77607 -46.2436,14.77607 h -42.0023 v 87.83551 h -13.6816 z" />
      <path
         id="path4518"
         style="font-style:normal;font-variant:normal;font-weight:200;font-stretch:normal;font-family:'DejaVu Sans';-inkscape-font-specification:'DejaVu Sans Ultra-Light';fill:#42b983;fill-opacity:1;stroke-width:7.00495052px"
         d="m 1224.7267,689.87395 -43.7809,114.92497 h 86.8778 z m -8.7561,-13.81836 h 17.9228 l 78.1216,204.26545 h -15.597 l -24.3531,-64.16644 h -95.3604 l -24.2163,64.16644 h -14.5024 z" />
      <path
         id="path4520"
         style="font-style:normal;font-variant:normal;font-weight:200;font-stretch:normal;font-family:'DejaVu Sans';-inkscape-font-specification:'DejaVu Sans Ultra-Light';fill:#42b983;fill-opacity:1;stroke-width:7.00495052px"
         d="m 1496.7159,693.0207 v 15.73378 q -13.9552,-12.72384 -29.689,-18.88053 -15.8706,-6.29351 -33.6566,-6.29351 -38.5819,0 -58.9674,24.35315 -20.5224,24.35314 -20.5224,70.45995 0,46.1068 20.5224,70.59677 20.3855,24.48996 58.9674,24.48996 17.786,0 33.6566,-6.29351 15.7338,-6.43032 29.689,-19.15416 v 16.55467 q -14.5025,9.85071 -30.7835,14.77607 -16.1442,4.92535 -34.2039,4.92535 -42.96,0 -67.5868,-28.32079 -24.6268,-28.45762 -24.6268,-77.57436 0,-49.25356 24.6268,-77.57436 24.6268,-28.45761 67.5868,-28.45761 18.3333,0 34.4775,5.19899 16.2811,5.06217 30.5099,15.46014 z" />
      <path
         id="path4522"
         style="font-style:normal;font-variant:normal;font-weight:200;font-stretch:normal;font-family:'DejaVu Sans';-inkscape-font-specification:'DejaVu Sans Ultra-Light';fill:#42b983;fill-opacity:1;stroke-width:7.00495052px"
         d="m 1546.243,676.05559 h 115.4722 v 11.35568 h -101.517 v 78.39525 h 97.2758 v 11.08205 h -97.2758 v 92.35042 h 103.9797 v 11.08205 H 1546.243 Z" />
      <path
         id="path4524"
         style="font-style:normal;font-variant:normal;font-weight:200;font-stretch:normal;font-family:'DejaVu Sans';-inkscape-font-specification:'DejaVu Sans Ultra-Light';fill:#42b983;fill-opacity:1;stroke-width:7.00495052px"
         d="m 1767.8841,667.43621 v 249.825 H 1721.23 v -11.49249 h 32.9725 V 681.66502 H 1721.23 v -14.22881 z" />
    </g>
    <g
       id="text4625"
       style="font-style:normal;font-weight:normal;font-size:100.74259186px;line-height:50.37129593px;font-family:sans-serif;letter-spacing:0px;word-spacing:0px;fill:#2e2a2b;fill-opacity:1;stroke:none;stroke-width:2.5185647px;stroke-linecap:butt;stroke-linejoin:miter;stroke-opacity:1"
       aria-label="ΠΥΘΟΔΩΡΟΥ 6, ΑΘΗΝΑ">
      <path
         id="path4527"
         style="font-style:normal;font-variant:normal;font-weight:normal;font-stretch:semi-condensed;font-family:'DejaVu Sans';-inkscape-font-specification:'DejaVu Sans Semi-Condensed';fill:#2e2a2b;fill-opacity:1;stroke-width:2.5185647px"
         d="m 773.39579,952.13907 v 73.44173 h -8.95271 V 960.50149 H 731.9772 v 65.07931 h -8.95271 v -73.44173 z" />
      <path
         id="path4529"
         style="font-style:normal;font-variant:normal;font-weight:normal;font-stretch:semi-condensed;font-family:'DejaVu Sans';-inkscape-font-specification:'DejaVu Sans Semi-Condensed';fill:#2e2a2b;fill-opacity:1;stroke-width:2.5185647px"
         d="m 782.25012,952.13907 h 9.64138 l 18.29895,30.2031 18.20056,-30.2031 h 9.64138 l -23.41478,38.46714 v 34.97459 h -8.95271 v -34.97459 z" />
      <path
         id="path4531"
         style="font-style:normal;font-variant:normal;font-weight:normal;font-stretch:semi-condensed;font-family:'DejaVu Sans';-inkscape-font-specification:'DejaVu Sans Semi-Condensed';fill:#2e2a2b;fill-opacity:1;stroke-width:2.5185647px"
         d="m 857.75787,982.29298 h 31.23611 v 8.36242 h -31.23611 z m 15.64265,-23.41478 q -9.73976,0 -15.44589,8.06727 -5.75531,8.06728 -5.75531,21.98826 0,13.87177 5.70612,21.93907 5.75532,8.0673 15.49508,8.0673 9.73976,0 15.44588,-8.0673 5.70613,-8.0673 5.70613,-21.93907 0,-13.92098 -5.70613,-21.98826 -5.70612,-8.06727 -15.44588,-8.06727 z m 0,-8.06728 q 13.92097,0 22.2342,10.37924 8.31324,10.33005 8.31324,27.74357 0,17.36427 -8.31324,27.69437 -8.31323,10.3792 -22.2342,10.3792 -13.92097,0 -22.2834,-10.33 -8.31323,-10.3301 -8.31323,-27.74357 0,-17.41352 8.31323,-27.79276 8.36243,-10.33005 22.2834,-10.33005 z" />
      <path
         id="path4533"
         style="font-style:normal;font-variant:normal;font-weight:normal;font-stretch:semi-condensed;font-family:'DejaVu Sans';-inkscape-font-specification:'DejaVu Sans Semi-Condensed';fill:#2e2a2b;fill-opacity:1;stroke-width:2.5185647px"
         d="m 944.82544,958.8782 q -9.73976,0 -15.49508,8.06727 -5.70612,8.06728 -5.70612,21.98826 0,13.87177 5.70612,21.93907 5.75532,8.0673 15.49508,8.0673 9.73976,0 15.44588,-8.0673 5.70613,-8.0673 5.70613,-21.93907 0,-13.92098 -5.70613,-21.98826 -5.70612,-8.06727 -15.44588,-8.06727 z m 0,-8.06728 q 13.92097,0 22.2342,10.37924 8.31323,10.33005 8.31323,27.74357 0,17.36427 -8.31323,27.74357 -8.31323,10.33 -22.2342,10.33 -13.92098,0 -22.2834,-10.33 -8.31323,-10.3301 -8.31323,-27.74357 0,-17.41352 8.31323,-27.74357 8.36242,-10.37924 22.2834,-10.37924 z" />
      <path
         id="path4535"
         style="font-style:normal;font-variant:normal;font-weight:normal;font-stretch:semi-condensed;font-family:'DejaVu Sans';-inkscape-font-specification:'DejaVu Sans Semi-Condensed';fill:#2e2a2b;fill-opacity:1;stroke-width:2.5185647px"
         d="m 1011.5281,961.92802 -18.15142,55.38878 h 36.35192 z m -30.30153,63.65278 25.23483,-73.44173 h 10.1825 l 25.1856,73.44173 z" />
      <path
         id="path4537"
         style="font-style:normal;font-variant:normal;font-weight:normal;font-stretch:semi-condensed;font-family:'DejaVu Sans';-inkscape-font-specification:'DejaVu Sans Semi-Condensed';fill:#2e2a2b;fill-opacity:1;stroke-width:2.5185647px"
         d="m 1108.3354,1016.8249 v 8.7559 h -26.563 v -8.7559 q 7.8705,-4.7715 12.2485,-12.9372 4.378,-8.16566 4.378,-18.10218 0,-11.80577 -5.8537,-18.93843 -5.8537,-7.13265 -15.3967,-7.13265 -9.5922,0 -15.4459,7.18184 -5.8537,7.13266 -5.8537,18.88924 0,9.93652 4.378,18.10218 4.4271,8.1657 12.2977,12.9372 v 8.7559 h -26.563 v -8.7559 h 14.1177 q -6.9851,-6.8375 -10.1825,-14.167 -3.1974,-7.32938 -3.1974,-16.38047 0,-15.64265 8.4608,-25.33322 8.4608,-9.69058 21.9883,-9.69058 13.4291,0 21.939,9.69058 8.51,9.64138 8.51,24.84131 0,9.543 -3.1482,16.82318 -3.1482,7.2803 -10.2808,14.2162 z" />
      <path
         id="path4539"
         style="font-style:normal;font-variant:normal;font-weight:normal;font-stretch:semi-condensed;font-family:'DejaVu Sans';-inkscape-font-specification:'DejaVu Sans Semi-Condensed';fill:#2e2a2b;fill-opacity:1;stroke-width:2.5185647px"
         d="m 1129.635,960.30473 v 27.59599 h 11.2155 q 6.2472,0 9.6413,-3.59092 3.4434,-3.59092 3.4434,-10.23167 0,-6.59156 -3.4434,-10.18248 -3.3941,-3.59092 -9.6413,-3.59092 z m -8.9527,-8.16566 h 20.1682 q 11.1171,0 16.774,5.60774 5.7061,5.55855 5.7061,16.33132 0,10.87115 -5.7061,16.4297 -5.6569,5.55855 -16.774,5.55855 h -11.2155 v 29.51442 h -8.9527 z" />
      <path
         id="path4541"
         style="font-style:normal;font-variant:normal;font-weight:normal;font-stretch:semi-condensed;font-family:'DejaVu Sans';-inkscape-font-specification:'DejaVu Sans Semi-Condensed';fill:#2e2a2b;fill-opacity:1;stroke-width:2.5185647px"
         d="m 1202.1913,958.8782 q -9.7398,0 -15.4951,8.06727 -5.7061,8.06728 -5.7061,21.98826 0,13.87177 5.7061,21.93907 5.7553,8.0673 15.4951,8.0673 9.7397,0 15.4459,-8.0673 5.7061,-8.0673 5.7061,-21.93907 0,-13.92098 -5.7061,-21.98826 -5.7062,-8.06727 -15.4459,-8.06727 z m 0,-8.06728 q 13.921,0 22.2342,10.37924 8.3132,10.33005 8.3132,27.74357 0,17.36427 -8.3132,27.74357 -8.3132,10.33 -22.2342,10.33 -13.921,0 -22.2834,-10.33 -8.3132,-10.3301 -8.3132,-27.74357 0,-17.41352 8.3132,-27.74357 8.3624,-10.37924 22.2834,-10.37924 z" />
      <path
         id="path4543"
         style="font-style:normal;font-variant:normal;font-weight:normal;font-stretch:semi-condensed;font-family:'DejaVu Sans';-inkscape-font-specification:'DejaVu Sans Semi-Condensed';fill:#2e2a2b;fill-opacity:1;stroke-width:2.5185647px"
         d="m 1237.7562,952.13907 h 9.6414 l 18.2989,30.2031 18.2006,-30.2031 h 9.6414 l -23.4148,38.46714 v 34.97459 h -8.9527 v -34.97459 z" />
      <path
         id="path4545"
         style="font-style:normal;font-variant:normal;font-weight:normal;font-stretch:semi-condensed;font-family:'DejaVu Sans';-inkscape-font-specification:'DejaVu Sans Semi-Condensed';fill:#2e2a2b;fill-opacity:1;stroke-width:2.5185647px"
         d="m 1351.8295,984.90009 q -6.0013,0 -9.543,4.57473 -3.4926,4.57474 -3.4926,12.54368 0,7.9197 3.4926,12.5436 3.5417,4.5747 9.543,4.5747 6.0504,0 9.543,-4.5747 3.5417,-4.6239 3.5417,-12.5436 0,-7.96894 -3.5417,-12.54368 -3.4926,-4.57473 -9.543,-4.57473 z m 17.7578,-31.13773 v 9.05109 q -3.345,-1.77086 -6.7883,-2.70549 -3.4434,-0.93462 -6.7883,-0.93462 -8.8544,0 -13.5275,6.64075 -4.6731,6.64074 -5.3126,20.06981 2.6071,-4.27959 6.5424,-6.54237 3.9353,-2.31196 8.6576,-2.31196 9.9857,0 15.741,6.73913 5.8045,6.68994 5.8045,18.2498 0,11.3138 -6.0505,18.1513 -6.0012,6.8375 -16.0361,6.8375 -11.4615,0 -17.5119,-9.7397 -6.0505,-9.789 -6.0505,-28.33387 0,-17.41352 7.4278,-27.74357 7.4278,-10.37924 19.9714,-10.37924 3.345,0 6.7884,0.73786 3.4433,0.73786 7.1326,2.21358 z" />
      <path
         id="path4547"
         style="font-style:normal;font-variant:normal;font-weight:normal;font-stretch:semi-condensed;font-family:'DejaVu Sans';-inkscape-font-specification:'DejaVu Sans Semi-Condensed';fill:#2e2a2b;fill-opacity:1;stroke-width:2.5185647px"
         d="m 1390.1982,1013.0864 h 9.3462 v 8.4608 l -7.2802,15.741 h -5.7061 l 3.6401,-15.741 z" />
      <path
         id="path4549"
         style="font-style:normal;font-variant:normal;font-weight:normal;font-stretch:semi-condensed;font-family:'DejaVu Sans';-inkscape-font-specification:'DejaVu Sans Semi-Condensed';fill:#2e2a2b;fill-opacity:1;stroke-width:2.5185647px"
         d="m 1468.0179,961.92802 -12.1501,36.5487 h 24.3494 z m -5.0666,-9.78895 h 10.1825 l 25.1856,73.44173 h -9.297 l -6.0505,-18.84 h -29.8096 l -6.0012,18.84 h -9.4447 z" />
      <path
         id="path4551"
         style="font-style:normal;font-variant:normal;font-weight:normal;font-stretch:semi-condensed;font-family:'DejaVu Sans';-inkscape-font-specification:'DejaVu Sans Semi-Condensed';fill:#2e2a2b;fill-opacity:1;stroke-width:2.5185647px"
         d="m 1519.0779,982.29298 h 31.2361 v 8.36242 h -31.2361 z m 15.6426,-23.41478 q -9.7397,0 -15.4459,8.06727 -5.7553,8.06728 -5.7553,21.98826 0,13.87177 5.7061,21.93907 5.7554,8.0673 15.4951,8.0673 9.7398,0 15.4459,-8.0673 5.7061,-8.0673 5.7061,-21.93907 0,-13.92098 -5.7061,-21.98826 -5.7061,-8.06727 -15.4459,-8.06727 z m 0,-8.06728 q 13.921,0 22.2342,10.37924 8.3133,10.33005 8.3133,27.74357 0,17.36427 -8.3133,27.69437 -8.3132,10.3792 -22.2342,10.3792 -13.921,0 -22.2834,-10.33 -8.3132,-10.3301 -8.3132,-27.74357 0,-17.41352 8.3132,-27.79276 8.3624,-10.33005 22.2834,-10.33005 z" />
      <path
         id="path4553"
         style="font-style:normal;font-variant:normal;font-weight:normal;font-stretch:semi-condensed;font-family:'DejaVu Sans';-inkscape-font-specification:'DejaVu Sans Semi-Condensed';fill:#2e2a2b;fill-opacity:1;stroke-width:2.5185647px"
         d="m 1579.3365,952.13907 h 8.9527 v 30.10472 h 32.4659 v -30.10472 h 8.9527 v 73.44173 h -8.9527 v -34.97459 h -32.4659 v 34.97459 h -8.9527 z" />
      <path
         id="path4555"
         style="font-style:normal;font-variant:normal;font-weight:normal;font-stretch:semi-condensed;font-family:'DejaVu Sans';-inkscape-font-specification:'DejaVu Sans Semi-Condensed';fill:#2e2a2b;fill-opacity:1;stroke-width:2.5185647px"
         d="m 1647.6132,952.13907 h 12.0518 l 29.3176,61.43923 v -61.43923 h 8.6576 v 73.44173 h -12.0517 l -29.3177,-61.4392 v 61.4392 h -8.6576 z" />
      <path
         id="path4557"
         style="font-style:normal;font-variant:normal;font-weight:normal;font-stretch:semi-condensed;font-family:'DejaVu Sans';-inkscape-font-specification:'DejaVu Sans Semi-Condensed';fill:#2e2a2b;fill-opacity:1;stroke-width:2.5185647px"
         d="m 1737.583,961.92802 -12.1501,36.5487 h 24.3494 z m -5.0666,-9.78895 h 10.1825 l 25.1856,73.44173 h -9.297 l -6.0505,-18.84 h -29.8095 l -6.0013,18.84 h -9.4446 z" />
    </g>
  </g>
</svg>
